<svg width="350" height="350" xmlns="http://www.w3.org/2000/svg">
 <!-- Created with Method Draw - http://github.com/duopixel/Method-Draw/ -->

 <g>
  <title>background</title>
  <rect fill="none" id="canvas_background" height="352" width="352" y="-1" x="-1"/>
  <g display="none" overflow="visible" y="0" x="0" height="100%" width="100%" id="canvasGrid">
   <rect fill="url(#gridpattern)" stroke-width="0" y="0" x="0" height="100%" width="100%"/>
  </g>
 </g>
 <g>
  <title>Layer 1</title>
  <rect transform="rotate(90 181.49981689453125,168.99987792968753) " rx="45" id="svg_1" height="284" width="317" y="26.999867" x="22.999805" stroke-width="1.5" stroke="#000" fill="#5461c4"/>
  <rect transform="rotate(90 165.49981689453125,175.9999694824219) " rx="45" id="svg_2" height="284" width="317" y="33.999933" x="6.999817" stroke-width="1.5" stroke="#000" fill="#727df5"/>
  <text stroke="#000" transform="matrix(1,0,0,4.890918731689453,0,-756.4797152876854) " xml:space="preserve" text-anchor="start" font-family="Helvetica, Arial, sans-serif" font-size="24" id="svg_7" y="216.437479" x="231.499969" stroke-opacity="null" stroke-width="0" fill="#000000"/>
  <text transform="rotate(-2.9576594829559326 273.1718749999998,254.1875000000006) " xml:space="preserve" text-anchor="start" font-family="Helvetica, Arial, sans-serif" font-size="24" id="svg_8" y="262.437594" x="266.500057" stroke-opacity="null" stroke-width="0" stroke="#000" fill="#000000"/>
  <text stroke="#000" transform="matrix(5.4215569496154785,0,0,4.4330973625183105,-1175.4432803243399,-708.290899604559) " xml:space="preserve" text-anchor="start" font-family="Helvetica, Arial, sans-serif" font-size="24" id="svg_9" y="228.437509" x="252.500022" stroke-opacity="null" stroke-width="0" fill="#000000"/>
  <text stroke="#000" transform="matrix(4.896965503692627,0,0,4.314749240875244,-882.6017965003848,-598.1050661504269) " xml:space="preserve" text-anchor="start" font-family="Helvetica, Arial, sans-serif" font-size="24" id="svg_10" y="202.437443" x="226.499956" stroke-opacity="null" stroke-width="0" fill="#000000"/>
  <text stroke="#000" transform="matrix(9.51202260343435,0,0,7.234429127051325,-1969.5647323968924,-1273.8502630736639) " xml:space="preserve" text-anchor="start" font-family="'Trebuchet MS', Gadget, sans-serif" font-size="24" id="svg_11" y="208.558468" x="217.53104" stroke-opacity="null" stroke-width="0" fill="#ffffff">D</text>
  <rect stroke="#000" id="svg_14" height="41.000098" width="50.000125" y="153.437319" x="102.49964" stroke-opacity="null" stroke-width="0" fill="#727df5"/>
  <rect rx="5" stroke="#000" id="svg_16" height="14.000034" width="49.000119" y="165.437353" x="103.499653" stroke-opacity="null" stroke-width="0" fill="#ffffff"/>
 </g>
</svg>